<svg width="40" height="40" viewBox="0 0 40 40" fill="none" xmlns="http://www.w3.org/2000/svg" xmlns:xlink="http://www.w3.org/1999/xlink">
<path d="M20,3C10.626,3 3,10.626 3,20C3,29.374 10.626,37 20,37C29.374,37 37,29.374 37,20C37,10.626 29.374,3 20,3M20,40C8.972,40 0,31.028 0,20C0,8.972 8.972,0 20,0C31.028,0 40,8.972 40,20C40,31.028 31.028,40 20,40Z" clip-rule="evenodd" fill-rule="evenodd" fill="#FFFFFF"/>
<path d="M17.117,28.442C16.733,28.442 16.347,28.296 16.055,28C15.471,27.412 15.473,26.464 16.059,25.88L21.963,20L16.059,14.122C15.473,13.538 15.471,12.588 16.055,12C16.639,11.41 17.587,11.414 18.175,11.996L25.147,18.938C25.429,19.22 25.587,19.602 25.587,20C25.587,20.4 25.429,20.782 25.147,21.064L18.175,28.004C17.883,28.296 17.499,28.442 17.117,28.442Z" clip-rule="evenodd" fill-rule="evenodd" fill="#FFFFFF"/>
</svg>
