<svg width="84" height="84" viewBox="0 0 84 84" fill="none" xmlns="http://www.w3.org/2000/svg" xmlns:xlink="http://www.w3.org/1999/xlink">
<g filter="url(#filterI3_188;3_106)">
<circle cx="42" cy="42" r="42" fill="#F48E28"/>
</g>
<line x1="29.167" y1="40" x2="54.833" y2="40" stroke="#FFFFFF" stroke-width="2" stroke-miterlimit="3.999327" stroke-linecap="round" stroke-linejoin="round"/>
<path d="M43.414,27.753C42.633,26.971 41.367,26.971 40.586,27.753C39.805,28.534 39.805,29.8 40.586,30.581L43.414,27.753ZM54.833,42L56.248,43.414C56.623,43.039 56.833,42.531 56.833,42C56.833,41.47 56.623,40.961 56.248,40.586L54.833,42ZM40.586,53.419C39.805,54.2 39.805,55.467 40.586,56.248C41.367,57.029 42.633,57.029 43.414,56.248L40.586,53.419ZM40.586,30.581L53.419,43.414L56.248,40.586L43.414,27.753L40.586,30.581ZM53.419,40.586L40.586,53.419L43.414,56.248L56.248,43.414L53.419,40.586Z" fill="#FFFFFF"/>
<defs>
<filter id="filterI3_188;3_106" x="-25" y="-25" width="92" height="92" filterUnits="userSpaceOnUse" color-interpolation-filters="sRGB">
<feFlood flood-opacity="0" result="BackgroundImageFix"/>
<feColorMatrix in="SourceAlpha" type="matrix" values="0 0 0 0 0 0 0 0 0 0 0 0 0 0 0 0 0 0 127 0" result="hardAlpha"/>
<feMorphology radius="0" operator="dilate" in="SourceAlpha" result="0dropshadow"/>
<feOffset dx="0" dy="0"/>
<feGaussianBlur stdDeviation="12.5"/>
<feComposite in2="hardAlpha" operator="out"/>
<feColorMatrix type="matrix" values="0 0 0 0 0.513725 0 0 0 0 0.647059 0 0 0 0 1 0 0 0 0.25 0"/>
<feBlend mode="normal" in2="BackgroundImageFix" result="0dropshadow"/>
<feBlend mode="normal" in="SourceGraphic" in2="0dropshadow" result="shape"/>
</filter>
</defs>
</svg>
