<svg width="84" height="84" viewBox="0 0 84 84" fill="none" xmlns="http://www.w3.org/2000/svg" xmlns:xlink="http://www.w3.org/1999/xlink">
<g filter="url(#filterI3_187;3_106)">
<circle cx="42" cy="42" r="42" transform="rotate(360 42 42)" fill="#F48E28"/>
</g>
<line x1="54.833" y1="40" x2="29.167" y2="40" stroke="#FFFFFF" stroke-width="2" stroke-miterlimit="3.999327" stroke-linecap="round" stroke-linejoin="round"/>
<path d="M30.581,27.753C29.8,26.971 28.534,26.971 27.752,27.753C26.971,28.534 26.971,29.8 27.752,30.581L30.581,27.753ZM42,42L43.414,43.414C43.789,43.039 44,42.531 44,42C44,41.47 43.789,40.961 43.414,40.586L42,42ZM27.752,53.419C26.971,54.2 26.971,55.467 27.752,56.248C28.534,57.029 29.8,57.029 30.581,56.248L27.752,53.419ZM27.752,30.581L40.586,43.414L43.414,40.586L30.581,27.753L27.752,30.581ZM40.586,40.586L27.752,53.419L30.581,56.248L43.414,43.414L40.586,40.586Z" transform="rotate(360 35.583 42)" fill="#FFFFFF"/>
<defs>
<filter id="filterI3_187;3_106" x="-25" y="-25" width="92" height="92" filterUnits="userSpaceOnUse" color-interpolation-filters="sRGB">
<feFlood flood-opacity="0" result="BackgroundImageFix"/>
<feColorMatrix in="SourceAlpha" type="matrix" values="0 0 0 0 0 0 0 0 0 0 0 0 0 0 0 0 0 0 127 0" result="hardAlpha"/>
<feMorphology radius="0" operator="dilate" in="SourceAlpha" result="0dropshadow"/>
<feOffset dx="0" dy="0"/>
<feGaussianBlur stdDeviation="12.5"/>
<feComposite in2="hardAlpha" operator="out"/>
<feColorMatrix type="matrix" values="0 0 0 0 0.513725 0 0 0 0 0.647059 0 0 0 0 1 0 0 0 0.25 0"/>
<feBlend mode="normal" in2="BackgroundImageFix" result="0dropshadow"/>
<feBlend mode="normal" in="SourceGraphic" in2="0dropshadow" result="shape"/>
</filter>
</defs>
</svg>
