<svg width="54" height="56" viewBox="0 0 54 56" fill="none" xmlns="http://www.w3.org/2000/svg" xmlns:xlink="http://www.w3.org/1999/xlink">
<path d="M38,22C38,32.039 30.293,40 21,40L21,44C32.693,44 42,34.052 42,22L38,22ZM21,40C11.707,40 4,32.039 4,22L0,22C0,34.052 9.307,44 21,44L21,40ZM4,22C4,11.961 11.707,4 21,4L21,0C9.307,0 0,9.948 0,22L4,22ZM21,4C30.293,4 38,11.961 38,22L42,22C42,9.948 32.693,0 21,0L21,4Z" fill="#000000"/>
<path d="M50.586,55.414C51.367,56.195 52.633,56.195 53.414,55.414C54.195,54.633 54.195,53.367 53.414,52.586L50.586,55.414ZM37.414,36.586C36.633,35.805 35.367,35.805 34.586,36.586C33.805,37.367 33.805,38.633 34.586,39.414L37.414,36.586ZM53.414,52.586L37.414,36.586L34.586,39.414L50.586,55.414L53.414,52.586Z" fill="#000000"/>
</svg>
