<svg width="40" height="48" viewBox="0 0 40 48" fill="none" xmlns="http://www.w3.org/2000/svg" xmlns:xlink="http://www.w3.org/1999/xlink">
<path d="M38,20L40,20L38,20ZM20,46L18.891,47.664C19.562,48.112 20.438,48.112 21.109,47.664L20,46ZM2,20L0,20L2,20ZM20,2L20,4L20,2ZM36,20C36,26.196 31.969,32.208 27.548,36.875C25.379,39.164 23.203,41.039 21.567,42.342C20.75,42.992 20.072,43.496 19.602,43.836C19.368,44.005 19.185,44.133 19.063,44.218C19.003,44.26 18.957,44.291 18.928,44.311C18.913,44.321 18.903,44.328 18.897,44.332C18.893,44.334 18.891,44.335 18.89,44.336C18.89,44.336 18.89,44.337 18.89,44.337C18.89,44.337 18.89,44.336 18.89,44.336C18.89,44.336 18.891,44.336 20,46C21.109,47.664 21.11,47.664 21.11,47.663C21.111,47.663 21.111,47.663 21.112,47.662C21.113,47.662 21.115,47.661 21.116,47.66C21.12,47.657 21.124,47.654 21.13,47.651C21.141,47.643 21.156,47.633 21.175,47.62C21.214,47.593 21.27,47.555 21.341,47.506C21.483,47.408 21.687,47.264 21.944,47.078C22.459,46.707 23.187,46.164 24.058,45.471C25.797,44.086 28.121,42.086 30.452,39.625C35.031,34.792 40,27.804 40,20L36,20ZM20,46C21.109,44.336 21.11,44.336 21.11,44.336C21.11,44.336 21.11,44.337 21.11,44.337C21.11,44.337 21.11,44.336 21.11,44.336C21.109,44.335 21.107,44.334 21.103,44.332C21.097,44.328 21.087,44.321 21.072,44.311C21.043,44.291 20.997,44.26 20.937,44.218C20.815,44.133 20.632,44.005 20.398,43.836C19.928,43.496 19.25,42.992 18.433,42.342C16.797,41.039 14.621,39.164 12.452,36.875C8.031,32.208 4,26.196 4,20L0,20C0,27.804 4.969,34.792 9.548,39.625C11.879,42.086 14.203,44.086 15.942,45.471C16.813,46.164 17.541,46.707 18.056,47.078C18.313,47.264 18.517,47.408 18.659,47.506C18.73,47.555 18.786,47.593 18.825,47.62C18.844,47.633 18.859,47.643 18.87,47.651C18.876,47.654 18.88,47.657 18.884,47.66C18.885,47.661 18.887,47.662 18.888,47.662C18.889,47.663 18.889,47.663 18.89,47.663C18.89,47.664 18.891,47.664 20,46ZM4,20C4,15.757 5.686,11.687 8.686,8.686L5.858,5.858C2.107,9.609 0,14.696 0,20L4,20ZM8.686,8.686C11.687,5.686 15.757,4 20,4L20,0C14.696,0 9.609,2.107 5.858,5.858L8.686,8.686ZM20,4C24.243,4 28.313,5.686 31.314,8.686L34.142,5.858C30.391,2.107 25.304,0 20,0L20,4ZM31.314,8.686C34.314,11.687 36,15.757 36,20L40,20C40,14.696 37.893,9.609 34.142,5.858L31.314,8.686Z" fill="#FFFFFF"/>
<path d="M24,20C24,22.209 22.209,24 20,24L20,28C24.418,28 28,24.418 28,20L24,20ZM20,24C17.791,24 16,22.209 16,20L12,20C12,24.418 15.582,28 20,28L20,24ZM16,20C16,17.791 17.791,16 20,16L20,12C15.582,12 12,15.582 12,20L16,20ZM20,16C22.209,16 24,17.791 24,20L28,20C28,15.582 24.418,12 20,12L20,16Z" fill="#FFFFFF"/>
</svg>
