<svg width="44" height="44" viewBox="0 0 44 44" fill="none" xmlns="http://www.w3.org/2000/svg" xmlns:xlink="http://www.w3.org/1999/xlink">
<path d="M40,22C40,31.941 31.941,40 22,40L22,44C34.15,44 44,34.15 44,22L40,22ZM22,40C12.059,40 4,31.941 4,22L0,22C0,34.15 9.85,44 22,44L22,40ZM4,22C4,12.059 12.059,4 22,4L22,0C9.85,0 0,9.85 0,22L4,22ZM22,4C31.941,4 40,12.059 40,22L44,22C44,9.85 34.15,0 22,0L22,4Z" fill="#FFFFFF"/>
<path d="M24,10C24,8.895 23.105,8 22,8C20.895,8 20,8.895 20,10L24,10ZM22,22L20,22C20,22.758 20.428,23.45 21.106,23.789L22,22ZM29.106,27.789C30.094,28.283 31.295,27.882 31.789,26.894C32.283,25.906 31.882,24.705 30.894,24.211L29.106,27.789ZM20,10L20,22L24,22L24,10L20,10ZM21.106,23.789L29.106,27.789L30.894,24.211L22.894,20.211L21.106,23.789Z" fill="#FFFFFF"/>
</svg>
