<svg width="46" height="50" viewBox="0 0 46 50" fill="none" xmlns="http://www.w3.org/2000/svg" xmlns:xlink="http://www.w3.org/1999/xlink">
<path d="M9,2L9,0C8.375,0 7.787,0.292 7.408,0.789L9,2ZM2,11.2L0.408,9.989C0.143,10.337 0,10.763 0,11.2L2,11.2ZM2,43.4L0,43.4L2,43.4ZM44,11.2L46,11.2C46,10.763 45.857,10.337 45.592,9.989L44,11.2ZM37,2L38.592,0.789C38.213,0.292 37.625,0 37,0L37,2ZM7.408,0.789L0.408,9.989L3.592,12.411L10.592,3.211L7.408,0.789ZM0,11.2L0,43.4L4,43.4L4,11.2L0,11.2ZM0,43.4C0,45.16 0.709,46.842 1.963,48.077L4.771,45.228C4.274,44.738 4,44.08 4,43.4L0,43.4ZM1.963,48.077C3.215,49.312 4.908,50 6.667,50L6.667,46C5.95,46 5.269,45.719 4.771,45.228L1.963,48.077ZM6.667,50L39.333,50L39.333,46L6.667,46L6.667,50ZM39.333,50C41.092,50 42.785,49.312 44.037,48.077L41.229,45.228C40.731,45.719 40.05,46 39.333,46L39.333,50ZM44.037,48.077C45.291,46.842 46,45.16 46,43.4L42,43.4C42,44.08 41.726,44.738 41.229,45.228L44.037,48.077ZM46,43.4L46,11.2L42,11.2L42,43.4L46,43.4ZM45.592,9.989L38.592,0.789L35.408,3.211L42.408,12.411L45.592,9.989ZM37,0L9,0L9,4L37,4L37,0Z" fill="#000000"/>
<line x1="2" y1="10" x2="44" y2="10" stroke="#000000" stroke-width="2" stroke-miterlimit="3.999327" stroke-linecap="round" stroke-linejoin="round"/>
<path d="M34,20C34,18.895 33.105,18 32,18C30.895,18 30,18.895 30,20L34,20ZM23,30L23,32L23,30ZM16,20C16,18.895 15.105,18 14,18C12.895,18 12,18.895 12,20L16,20ZM30,20C30,22.186 29.217,24.245 27.877,25.733L30.851,28.409C32.887,26.146 34,23.119 34,20L30,20ZM27.877,25.733C26.544,27.214 24.784,28 23,28L23,32C25.989,32 28.808,30.679 30.851,28.409L27.877,25.733ZM23,28C21.216,28 19.456,27.214 18.123,25.733L15.149,28.409C17.192,30.679 20.011,32 23,32L23,28ZM18.123,25.733C16.783,24.245 16,22.186 16,20L12,20C12,23.119 13.113,26.146 15.149,28.409L18.123,25.733Z" fill="#000000"/>
</svg>
