<svg width="46" height="46" viewBox="0 0 46 46" fill="none" xmlns="http://www.w3.org/2000/svg" xmlns:xlink="http://www.w3.org/1999/xlink">
<path d="M27.876,10L28.259,8.037C27.396,7.869 26.524,8.284 26.111,9.06C25.697,9.837 25.84,10.792 26.462,11.414L27.876,10ZM35.776,17.9L34.362,19.314C34.984,19.936 35.939,20.079 36.716,19.666C37.492,19.252 37.908,18.38 37.739,17.517L35.776,17.9ZM27.876,2L28.097,0.012C27.253,-0.082 26.441,0.368 26.073,1.134C25.706,1.9 25.862,2.815 26.463,3.415L27.876,2ZM43.776,17.88L42.363,19.295C42.964,19.895 43.879,20.051 44.644,19.682C45.41,19.313 45.859,18.501 45.764,17.657L43.776,17.88ZM41.776,33.84L39.777,33.79C39.776,33.807 39.776,33.823 39.776,33.84L41.776,33.84ZM41.776,39.84L39.776,39.84L39.776,39.848L41.776,39.84ZM37.416,43.84L37.2,45.828C37.212,45.83 37.224,45.831 37.236,45.832L37.416,43.84ZM20.156,37.7L21.244,36.022L21.229,36.012L20.156,37.7ZM8.156,25.7L9.844,24.627L9.835,24.613L8.156,25.7ZM2.016,8.36L0.024,8.54C0.025,8.55 0.026,8.561 0.027,8.571L2.016,8.36ZM5.996,4L5.996,2L5.994,2L5.996,4ZM11.996,4L11.996,6L12.016,6L11.996,4ZM15.996,7.44L17.979,7.178L17.977,7.16L15.996,7.44ZM17.396,13.06L15.522,13.759L15.524,13.764L17.396,13.06ZM16.496,17.28L17.91,18.694L17.918,18.686L16.496,17.28ZM13.956,19.82L12.542,18.406C11.905,19.042 11.773,20.026 12.218,20.809L13.956,19.82ZM25.956,31.82L24.968,33.559C25.75,34.004 26.734,33.871 27.37,33.234L25.956,31.82ZM28.496,29.28L27.09,27.858L27.082,27.866L28.496,29.28ZM32.716,28.38L32.013,30.252L32.017,30.254L32.716,28.38ZM38.336,29.78L38.616,27.8L38.598,27.797L38.336,29.78ZM27.493,11.963C29.056,12.268 30.492,13.032 31.618,14.158L34.447,11.33C32.758,9.641 30.603,8.494 28.259,8.037L27.493,11.963ZM31.618,14.158C32.744,15.284 33.508,16.72 33.813,18.283L37.739,17.517C37.282,15.173 36.135,13.018 34.447,11.33L31.618,14.158ZM37.19,16.486L29.29,8.586L26.462,11.414L34.362,19.314L37.19,16.486ZM27.655,3.988C31.263,4.389 34.627,6.004 37.195,8.569L40.022,5.739C36.812,2.533 32.607,0.513 28.097,0.012L27.655,3.988ZM37.195,8.569C39.764,11.134 41.383,14.496 41.789,18.103L45.764,17.657C45.257,13.148 43.232,8.945 40.022,5.739L37.195,8.569ZM45.19,16.465L29.29,0.585L26.463,3.415L42.363,19.295L45.19,16.465ZM39.776,33.84L39.776,39.84L43.776,39.84L43.776,33.84L39.776,33.84ZM39.776,39.848C39.777,40.127 39.72,40.402 39.609,40.657L43.274,42.26C43.608,41.494 43.78,40.667 43.776,39.832L39.776,39.848ZM39.609,40.657C39.497,40.913 39.334,41.142 39.128,41.33L41.832,44.277C42.448,43.713 42.939,43.025 43.274,42.26L39.609,40.657ZM39.128,41.33C38.923,41.518 38.681,41.662 38.417,41.751L39.698,45.54C40.49,45.272 41.217,44.842 41.832,44.277L39.128,41.33ZM38.417,41.751C38.153,41.84 37.874,41.873 37.596,41.848L37.236,45.832C38.068,45.907 38.907,45.808 39.698,45.54L38.417,41.751ZM37.632,41.852C31.789,41.217 26.176,39.22 21.244,36.022L19.068,39.378C24.524,42.917 30.735,45.126 37.2,45.828L37.632,41.852ZM21.229,36.012C16.644,33.099 12.757,29.212 9.844,24.627L6.468,26.773C9.696,31.853 14.003,36.16 19.084,39.388L21.229,36.012ZM9.835,24.613C6.626,19.659 4.628,14.018 4.005,8.149L0.027,8.571C0.717,15.066 2.927,21.306 6.478,26.787L9.835,24.613ZM4.008,8.18C3.983,7.903 4.016,7.625 4.105,7.362L0.314,6.085C0.048,6.874 -0.051,7.71 0.024,8.54L4.008,8.18ZM4.105,7.362C4.193,7.098 4.336,6.857 4.523,6.652L1.569,3.955C1.007,4.57 0.58,5.295 0.314,6.085L4.105,7.362ZM4.523,6.652C4.71,6.447 4.938,6.283 5.192,6.171L3.576,2.512C2.814,2.848 2.13,3.34 1.569,3.955L4.523,6.652ZM5.192,6.171C5.446,6.058 5.72,6 5.998,6L5.994,2C5.161,2.001 4.338,2.175 3.576,2.512L5.192,6.171ZM5.996,6L11.996,6L11.996,2L5.996,2L5.996,6ZM12.016,6C12.501,5.995 12.972,6.167 13.34,6.483L15.948,3.451C14.844,2.501 13.432,1.986 11.977,2L12.016,6ZM13.34,6.483C13.708,6.8 13.948,7.239 14.016,7.72L17.977,7.16C17.773,5.718 17.052,4.4 15.948,3.451L13.34,6.483ZM14.013,7.702C14.286,9.771 14.793,11.803 15.522,13.759L19.27,12.361C18.646,10.688 18.213,8.949 17.979,7.178L14.013,7.702ZM15.524,13.764C15.659,14.122 15.688,14.511 15.608,14.885L19.52,15.719C19.759,14.597 19.672,13.43 19.268,12.356L15.524,13.764ZM15.608,14.885C15.528,15.259 15.343,15.602 15.074,15.874L17.918,18.686C18.725,17.871 19.281,16.841 19.52,15.719L15.608,14.885ZM15.082,15.866L12.542,18.406L15.37,21.234L17.91,18.694L15.082,15.866ZM12.218,20.809C15.243,26.129 19.648,30.534 24.968,33.559L26.945,30.081C22.251,27.412 18.364,23.526 15.695,18.831L12.218,20.809ZM27.37,33.234L29.91,30.694L27.082,27.866L24.542,30.406L27.37,33.234ZM29.903,30.702C30.174,30.433 30.518,30.248 30.892,30.168L30.057,26.256C28.935,26.495 27.906,27.051 27.09,27.858L29.903,30.702ZM30.892,30.168C31.266,30.088 31.655,30.118 32.013,30.252L33.42,26.508C32.346,26.104 31.179,26.017 30.057,26.256L30.892,30.168ZM32.017,30.254C33.973,30.984 36.005,31.49 38.075,31.763L38.598,27.797C36.827,27.564 35.089,27.131 33.415,26.506L32.017,30.254ZM38.057,31.76C38.543,31.829 38.986,32.074 39.303,32.448L42.355,29.862C41.404,28.739 40.073,28.005 38.616,27.8L38.057,31.76ZM39.303,32.448C39.621,32.822 39.789,33.3 39.777,33.79L43.776,33.89C43.812,32.418 43.307,30.985 42.355,29.862L39.303,32.448Z" fill="#FFFFFF"/>
</svg>
