<svg width="24" height="44" viewBox="0 0 24 44" fill="none" xmlns="http://www.w3.org/2000/svg" xmlns:xlink="http://www.w3.org/1999/xlink">
<path d="M0.586,40.586C-0.195,41.367 -0.195,42.633 0.586,43.414C1.367,44.195 2.633,44.195 3.414,43.414L0.586,40.586ZM22,22L23.414,23.414C24.195,22.633 24.195,21.367 23.414,20.586L22,22ZM3.414,0.586C2.633,-0.195 1.367,-0.195 0.586,0.586C-0.195,1.367 -0.195,2.633 0.586,3.414L3.414,0.586ZM3.414,43.414L23.414,23.414L20.586,20.586L0.586,40.586L3.414,43.414ZM23.414,20.586L3.414,0.586L0.586,3.414L20.586,23.414L23.414,20.586Z" fill="#FFFFFF"/>
</svg>
